<svg width="401" height="380" viewBox="0 0 401 380" fill="none" xmlns="http://www.w3.org/2000/svg">
<rect x="1.46126" y="21.8372" width="250.678" height="336.136" rx="37.0319" fill="#F5DCD6" stroke="#FF6242" stroke-width="1.89907"/>
<rect x="22.3499" y="42.7279" width="206.999" height="294.356" rx="18.0412" fill="white" fill-opacity="0.2" stroke="#FF6242" stroke-width="1.89907"/>
<rect x="40.3906" y="51.2734" width="169.017" height="262.072" rx="11.3944" fill="url(#paint0_linear)" fill-opacity="0.07"/>
<path d="M122.297 140.822H125.29V134.455C125.29 127.088 127.768 123.268 136.699 116.993C146.892 109.853 150.539 104.487 150.539 96.8014C150.539 83.6589 139.925 74.0635 126.225 74.0635C111.871 74.0635 101.163 84.6139 101.163 98.6205H104.156C104.156 86.251 113.507 76.9739 126.225 76.9739C138.289 76.9739 147.547 85.2505 147.547 96.8014C147.547 103.395 144.507 108.125 135.015 114.628C125.383 121.222 122.297 126.088 122.297 134.455V140.822ZM123.794 169.017C125.664 169.017 127.16 167.562 127.16 165.743C127.16 163.924 125.664 162.469 123.794 162.469C121.923 162.469 120.427 163.924 120.427 165.743C120.427 167.562 121.923 169.017 123.794 169.017Z" fill="#FF6242"/>
<path d="M36.5947 358.926L37.9568 360.36C39.391 361.869 41.3819 362.724 43.4641 362.724H65.8077C67.8899 362.724 69.8809 361.869 71.315 360.36L72.6771 358.926" stroke="#FF6242" stroke-width="1.89907" stroke-linecap="round" stroke-linejoin="round"/>
<path d="M177.124 358.925L178.486 360.359C179.92 361.868 181.911 362.723 183.993 362.723H206.337C208.419 362.723 210.41 361.868 211.844 360.359L213.206 358.925" stroke="#FF6242" stroke-width="1.89907" stroke-linecap="round" stroke-linejoin="round"/>
<path d="M42.7937 193.704L23.3008 201.3H228.401L208.908 193.704H42.7937Z" stroke="#FF6242" stroke-width="1.89907" stroke-linecap="round" stroke-linejoin="round"/>
<path d="M42.7937 252.574L23.3008 269.666H228.401L208.908 252.574H42.7937Z" stroke="#FF6242" stroke-width="1.89907" stroke-linecap="round" stroke-linejoin="round"/>
<path d="M342.012 3.33528H362.473C382.925 3.33528 399.505 19.915 399.505 40.3672V339.446C399.505 359.898 382.925 376.478 362.473 376.478H342.012V3.33528Z" fill="#F5DCD6" stroke="#FF6242" stroke-width="1.89907"/>
<path d="M243.698 38.9356C243.698 30.4401 249.625 23.0957 257.928 21.3014L337.598 4.08656C353.569 0.635487 368.65 12.8058 368.65 29.1457V350.666C368.65 367.005 353.569 379.176 337.598 375.725L257.928 358.51C249.625 356.716 243.698 349.371 243.698 340.876V38.9356Z" fill="#F5DCD6" stroke="#FF6242" stroke-width="1.89907"/>
<defs>
<linearGradient id="paint0_linear" x1="40.3906" y1="313.345" x2="209.408" y2="313.345" gradientUnits="userSpaceOnUse">
<stop stop-color="#FF6242"/>
<stop offset="1" stop-color="#FF6242" stop-opacity="0.51"/>
</linearGradient>
</defs>
</svg>
