<svg width="226" height="29" viewBox="0 0 226 29" fill="none" xmlns="http://www.w3.org/2000/svg">
<path d="M13.0373 28.612C10.5413 28.612 8.3453 28.036 6.4493 26.884C4.5533 25.732 3.0773 24.124 2.0213 22.06C0.989303 19.996 0.473303 17.596 0.473303 14.86C0.473303 12.052 0.989303 9.604 2.0213 7.516C3.0773 5.428 4.5533 3.808 6.4493 2.656C8.3453 1.48 10.5413 0.891999 13.0373 0.891999C15.5573 0.891999 17.7533 1.48 19.6253 2.656C21.4973 3.808 22.9493 5.428 23.9813 7.516C25.0373 9.604 25.5653 12.052 25.5653 14.86C25.5653 17.596 25.0373 19.996 23.9813 22.06C22.9493 24.124 21.4973 25.732 19.6253 26.884C17.7533 28.036 15.5573 28.612 13.0373 28.612ZM21.4253 23.14C22.3613 22.204 22.9853 21.124 23.2973 19.9C23.6093 18.652 23.6453 17.368 23.4053 16.048C23.1653 14.704 22.6973 13.384 22.0013 12.088C21.3053 10.792 20.4173 9.604 19.3373 8.524C18.2573 7.444 17.0573 6.544 15.7373 5.824C14.4413 5.104 13.1093 4.624 11.7413 4.384C10.3973 4.12 9.1013 4.144 7.8533 4.456C6.6293 4.768 5.5493 5.392 4.6133 6.328C3.6773 7.264 3.0533 8.356 2.7413 9.604C2.4293 10.852 2.3813 12.16 2.5973 13.528C2.8373 14.896 3.3053 16.24 4.0013 17.56C4.7213 18.856 5.6333 20.044 6.7373 21.124C7.8173 22.18 9.0053 23.056 10.3013 23.752C11.5973 24.448 12.9173 24.916 14.2613 25.156C15.6293 25.396 16.9253 25.36 18.1493 25.048C19.3973 24.736 20.4893 24.1 21.4253 23.14ZM28.601 1.81818V28H57.5825V1.81818H53.6834V24.5739H45.0669V1.81818H41.155V24.5739H32.5129V1.81818H28.601ZM61.2069 19.342C61.2069 24.189 63.4269 28.555 68.7919 28.555C75.0449 28.555 77.2279 21.932 78.0049 16.826V28H81.7049V2.1H78.0049V9.87C78.0049 14.939 76.3399 25.225 69.4949 25.225C66.7569 25.225 64.9069 23.338 64.9069 20.6C64.9069 15.124 72.3069 11.868 72.3069 6.096C72.3069 4.653 71.8259 3.21 70.9379 2.1H65.9059C61.4289 2.1 61.2069 9.093 61.2069 12.201V19.342ZM62.3169 18.047V12.201C62.3169 9.907 62.3539 3.21 65.9059 3.21C67.5339 3.21 68.6069 4.505 68.6069 6.059C68.6069 9.944 62.3169 13.274 62.3169 18.047ZM85.6835 28H95.4889C101.306 28 104.642 24.7528 104.642 20.0611C104.642 15.3821 101.306 12.3778 95.4889 12.3778H89.6338V5.21875H102.009V1.81818H85.6835V28ZM89.6338 24.6761V15.7017H95.4889C98.8639 15.7017 100.73 17.6449 100.73 20.0099C100.73 22.4389 98.8639 24.6761 95.4889 24.6761H89.6338ZM124.121 28H128.941L118.074 13.5412L128.544 1.81818H123.725L113.83 12.8764H112.539V1.81818H108.589V28H112.539V16.2642H115.326L124.121 28ZM134.092 28L136.495 21.071H146.723L149.113 28H153.306L143.884 1.81818H139.321L129.899 28H134.092ZM137.646 17.7472L141.507 6.57386H141.711L145.572 17.7472H137.646ZM164.267 22.8864H176.68V28H180.452V22.8864H183.916V19.5369H180.452V1.81818H175.581L164.267 19.6903V22.8864ZM176.706 19.5369H168.409V19.3324L176.501 6.52273H176.706V19.5369ZM186.533 23.73V6.09H190.068V4.13H192.028V1.61H198.573V4.935H193.463V8.33H190.068V23.73H186.533ZM203.368 6.44V24.08H199.833V26.04H197.873V28.56H191.328V25.235H196.438V21.84H199.833V6.44H203.368ZM206.021 22.8864H218.434V28H222.205V22.8864H225.67V19.5369H222.205V1.81818H217.335L206.021 19.6903V22.8864ZM218.46 19.5369H210.163V19.3324L218.255 6.52273H218.46V19.5369Z" fill="#272727"/>
</svg>
