<svg width="312" height="380" viewBox="0 0 312 380" fill="none" xmlns="http://www.w3.org/2000/svg">
<path opacity="0.2" d="M1.70157 325.219L5.96109 312.485L7.53521 307.78C8.4602 305.015 10.8817 303.023 13.7739 302.654C73.4271 295.034 141.676 286.144 187.094 245.133L246.57 245.133L305.429 245.133C292.505 277.064 270.821 305.728 245.932 326.599C182.958 379.406 54.9653 408.98 2.54803 331.676C1.26883 329.79 0.97847 327.38 1.70157 325.219Z" fill="#F0C00E"/>
<path d="M5.96109 312.477L1.70157 325.21C0.978469 327.371 1.26883 329.781 2.54804 331.668C54.9653 408.971 182.958 379.397 245.932 326.59C270.821 305.719 292.505 277.055 305.429 245.125M5.96109 312.477L7.53521 307.771C8.4602 305.006 10.8817 303.014 13.7739 302.645C73.4271 295.025 141.676 286.135 187.094 245.125M5.96109 312.477C60.6724 337.097 180.526 343.855 246.57 245.125" stroke="#F0C00E" stroke-width="1.9" stroke-linecap="round" stroke-linejoin="round"/>
<path opacity="0.2" d="M147.525 224.101C163.407 202.445 176.483 166.313 180.714 131.442L206.606 131.442L249.313 131.442C264.839 169.177 261.385 209.216 246.852 245.124L187.993 245.124L128.517 245.124C135.417 238.894 141.789 231.922 147.525 224.101Z" fill="#F0C00E"/>
<path d="M187.08 245.124C209.786 211.18 212.452 169.463 206.606 131.442M180.714 131.442C176.483 166.313 163.407 202.445 147.525 224.101C141.789 231.922 135.417 238.894 128.517 245.124M249.313 131.442C264.839 169.177 261.385 209.216 246.852 245.124" stroke="#F0C00E" stroke-width="1.9" stroke-linecap="round" stroke-linejoin="round"/>
<path opacity="0.2" d="M220.006 39.4582C221.501 40.411 226.493 47.6361 234.506 68.9138C241.037 86.2578 242.065 108.579 239.29 131.443L265.182 131.443L307.889 131.443C302.685 118.794 295.348 106.404 285.582 94.5155C274.984 81.6147 262.548 68.9664 256.679 56.014L247.565 1.76305L239.29 1.09294L218.16 28.2179L220.006 39.4582Z" fill="#F0C00E"/>
<path d="M247.332 63.762C254.022 82.4224 261.288 106.113 265.182 131.443M239.29 131.443C242.065 108.579 241.037 86.2578 234.506 68.9138C229.677 56.0906 225.945 48.3713 223.415 44.0529C221.563 40.8923 219.667 37.3924 219.073 33.7775V33.7775C218.491 30.2332 219.415 26.6068 221.623 23.7733L237.202 3.77359C238.505 2.10054 240.563 1.19603 242.677 1.3672V1.3672C245.551 1.59996 247.9 3.75577 248.378 6.59969L255.373 48.2421C256.24 53.4016 257.664 58.4954 260.415 62.9453C266.943 73.5039 276.882 83.9246 285.582 94.5155C295.348 106.404 302.685 118.794 307.889 131.443" stroke="#F0C00E" stroke-width="1.9" stroke-linecap="round" stroke-linejoin="round"/>
</svg>
