<svg width="302" height="39" viewBox="0 0 302 39" fill="none" xmlns="http://www.w3.org/2000/svg">
<path d="M16.676 38.748C13.6253 38.748 10.9413 38.044 8.624 36.636C6.30667 35.228 4.50267 33.2627 3.212 30.74C1.95067 28.2173 1.32 25.284 1.32 21.94C1.32 18.508 1.95067 15.516 3.212 12.964C4.50267 10.412 6.30667 8.432 8.624 7.024C10.9413 5.58667 13.6253 4.868 16.676 4.868C19.756 4.868 22.44 5.58667 24.728 7.024C27.016 8.432 28.7907 10.412 30.052 12.964C31.3427 15.516 31.988 18.508 31.988 21.94C31.988 25.284 31.3427 28.2173 30.052 30.74C28.7907 33.2627 27.016 35.228 24.728 36.636C22.44 38.044 19.756 38.748 16.676 38.748ZM26.928 32.06C28.072 30.916 28.8347 29.596 29.216 28.1C29.5973 26.5747 29.6413 25.0053 29.348 23.392C29.0547 21.7493 28.4827 20.136 27.632 18.552C26.7813 16.968 25.696 15.516 24.376 14.196C23.056 12.876 21.5893 11.776 19.976 10.896C18.392 10.016 16.764 9.42933 15.092 9.136C13.4493 8.81333 11.8653 8.84266 10.34 9.224C8.844 9.60533 7.524 10.368 6.38 11.512C5.236 12.656 4.47333 13.9907 4.092 15.516C3.71067 17.0413 3.652 18.64 3.916 20.312C4.20933 21.984 4.78133 23.6267 5.632 25.24C6.512 26.824 7.62667 28.276 8.976 29.596C10.296 30.8867 11.748 31.9573 13.332 32.808C14.916 33.6587 16.5293 34.2307 18.172 34.524C19.844 34.8173 21.428 34.7733 22.924 34.392C24.4493 34.0107 25.784 33.2333 26.928 32.06ZM36.3583 6V38H71.7802V6H67.0145V33.8125H56.4833V6H51.702V33.8125H41.1395V6H36.3583ZM76.2333 27.236C76.2333 33.262 78.9933 38.69 85.6633 38.69C93.4373 38.69 96.1513 30.456 97.1173 24.108V38H101.717V5.8H97.1173V15.46C97.1173 21.762 95.0473 34.55 86.5373 34.55C83.1333 34.55 80.8333 32.204 80.8333 28.8C80.8333 21.992 90.0333 17.944 90.0333 10.768C90.0333 8.974 89.4353 7.18 88.3313 5.8H82.0753C76.5093 5.8 76.2333 14.494 76.2333 18.358V27.236ZM77.6133 25.626V18.358C77.6133 15.506 77.6593 7.18 82.0753 7.18C84.0993 7.18 85.4333 8.79 85.4333 10.722C85.4333 15.552 77.6133 19.692 77.6133 25.626ZM106.603 38H118.588C125.697 38 129.775 34.0312 129.775 28.2969C129.775 22.5781 125.697 18.9062 118.588 18.9062H111.431V10.1562H126.556V6H106.603V38ZM111.431 33.9375V22.9687H118.588C122.713 22.9687 124.994 25.3437 124.994 28.2344C124.994 31.2031 122.713 33.9375 118.588 33.9375H111.431ZM153.583 38H159.473L146.192 20.3281L158.989 6H153.098L141.004 19.5156H139.426V6H134.598V38H139.426V23.6562H142.833L153.583 38ZM165.769 38L168.706 29.5312H181.206L184.128 38H189.253L177.738 6H172.16L160.644 38H165.769ZM170.113 25.4687L174.831 11.8125H175.081L179.8 25.4687H170.113ZM202.65 31.75H217.821V38H222.431V31.75H226.665V27.6562H222.431V6H216.478L202.65 27.8437V31.75ZM217.853 27.6562H207.712V27.4062L217.603 11.75H217.853V27.6562ZM235.377 9.3125H244.6V5.7H234.102V7.6975H231.042V13.435H235.377V9.3125ZM241.412 26.355C247.277 21.2125 250.082 19.13 250.082 14.2425V10.1625H245.747V14.4975C245.747 16.665 243.792 18.705 238.267 23.5925C234.4 27.12 230.405 30.8175 229.895 33.835H229.852V37.9575H249.955V33.7075L234.612 33.7925C235.717 31.37 238.48 28.905 241.412 26.355ZM253.996 38H275.059V33.8594H260.653V33.625L267.012 26.9687C272.871 21.0469 274.543 18.2187 274.543 14.6406C274.543 9.5 270.356 5.5625 264.324 5.5625C258.34 5.5625 253.965 9.4375 253.965 15.2812H258.574C258.559 11.8437 260.778 9.59375 264.231 9.59375C267.481 9.59375 269.949 11.5937 269.949 14.7812C269.949 17.6094 268.262 19.6406 264.824 23.2812L253.996 34.5V38Z" fill="#272727"/>
</svg>
