<svg width="326" height="384" viewBox="0 0 326 384" fill="none" xmlns="http://www.w3.org/2000/svg">
<path d="M1.05 204.773C1.05 232.902 11.9227 276.912 31.4674 313.896C50.9781 350.816 79.3677 381.158 114.595 381.158C118.534 381.158 121.679 380.675 124.631 379.755C130.731 377.853 137.239 377.501 143.186 379.551C148.498 381.382 154.354 382.7 159.324 382.7C164.142 382.7 169.871 381.42 175.062 379.671C180.785 377.742 187.014 378.077 192.889 379.855C195.715 380.711 198.719 381.158 202.511 381.158C219.236 381.158 234.314 373.369 247.482 360.973C260.647 348.581 271.959 331.535 281.19 312.872C299.643 275.562 309.886 231.559 309.886 204.773C309.886 178.95 298.261 151.744 280.234 131C262.21 110.258 237.676 95.8557 211.766 95.8557C208.352 95.8557 204.981 96.0386 201.662 96.3954C191.578 97.4791 181.386 97.873 171.36 96.7426C166.163 96.1566 160.88 95.8557 155.527 95.8557C150.163 95.8557 144.869 96.1578 139.662 96.7462C129.615 97.8813 119.4 97.4858 109.295 96.3975C105.969 96.0394 102.591 95.8557 99.1708 95.8557C73.2604 95.8557 48.7261 110.258 30.7019 131C12.6758 151.744 1.05 178.95 1.05 204.773Z" fill="#AD99E5" fill-opacity="0.25" stroke="#AD99E5" stroke-width="1.9"/>
<path d="M155.413 125.342L153.058 113.818C152.06 108.935 151.557 103.964 151.557 98.9806L151.557 89.9189" stroke="#FF6242" stroke-width="11.4" stroke-linecap="round" stroke-linejoin="round"/>
<rect x="125.393" y="124.569" width="46.2718" height="16.9663" fill="#DED9EC"/>
<path d="M190.101 112.201C190.101 119.547 174.364 125.501 154.951 125.501C135.538 125.501 119.801 119.547 119.801 112.201" stroke="#AD99E5" stroke-width="1.9"/>
<path d="M215.577 4.81C177.957 15.4188 165.313 53.9411 164.225 74.1787C164.225 74.1787 183.007 83.2788 206.544 84.2342C257.378 86.2979 264.741 56.5338 324.524 27.8465C304.237 17.2824 257.264 -6.94556 215.577 4.81Z" fill="#FF6242" fill-opacity="0.15" stroke="#FF6242" stroke-width="1.9" stroke-linecap="round" stroke-linejoin="round"/>
<path d="M150.019 104.904C153.193 88.1995 169.676 56.0934 211.768 35.1047C253.859 14.1159 312.226 28.998 322.393 28.38" stroke="#FF6242" stroke-width="1.9" stroke-linecap="round" stroke-linejoin="round"/>
<path d="M227.625 222.4C227.625 236.433 224.423 249.092 219.295 258.208C214.15 267.355 207.191 272.75 199.719 272.75C192.246 272.75 185.287 267.355 180.142 258.208C175.014 249.092 171.812 236.433 171.812 222.4C171.812 208.366 175.014 195.707 180.142 186.591C185.287 177.444 192.246 172.05 199.719 172.05C207.191 172.05 214.15 177.444 219.295 186.591C224.423 195.707 227.625 208.366 227.625 222.4Z" stroke="#AD99E5" stroke-width="1.9"/>
<path d="M208.387 222.4C208.387 231.712 206.262 240.095 202.875 246.118C199.471 252.169 194.916 255.65 190.1 255.65C185.283 255.65 180.729 252.169 177.325 246.118C173.937 240.095 171.812 231.712 171.812 222.4C171.812 213.088 173.937 204.705 177.325 198.683C180.729 192.631 185.283 189.15 190.1 189.15C194.916 189.15 199.471 192.631 202.875 198.683C206.262 204.705 208.387 213.088 208.387 222.4Z" fill="#AD99E5" stroke="#AD99E5" stroke-width="1.9"/>
<path d="M139.989 222.4C139.989 236.433 136.787 249.092 131.659 258.208C126.514 267.355 119.556 272.75 112.083 272.75C104.61 272.75 97.6512 267.355 92.5064 258.208C87.3783 249.092 84.1766 236.433 84.1766 222.4C84.1766 208.366 87.3783 195.707 92.5064 186.591C97.6512 177.444 104.61 172.05 112.083 172.05C119.556 172.05 126.514 177.444 131.659 186.591C136.787 195.707 139.989 208.366 139.989 222.4Z" stroke="#AD99E5" stroke-width="1.9"/>
<path d="M120.751 222.4C120.751 231.712 118.625 240.095 115.238 246.118C111.834 252.169 107.28 255.65 102.463 255.65C97.6464 255.65 93.0923 252.169 89.6881 246.118C86.3007 240.095 84.1756 231.712 84.1756 222.4C84.1756 213.088 86.3007 204.705 89.6881 198.683C93.0923 192.631 97.6464 189.15 102.463 189.15C107.28 189.15 111.834 192.631 115.238 198.683C118.625 204.705 120.751 213.088 120.751 222.4Z" fill="#AD99E5" stroke="#AD99E5" stroke-width="1.9"/>
<path d="M192.001 319.3C192.001 312.954 190.363 306.991 187.488 301.809C181.33 290.711 169.493 283.2 155.901 283.2C142.309 283.2 130.472 290.711 124.313 301.809C121.438 306.991 119.801 312.954 119.801 319.3" stroke="#AD99E5" stroke-width="1.9"/>
</svg>
