<svg width="275" height="35" viewBox="0 0 275 35" fill="none" xmlns="http://www.w3.org/2000/svg">
<path d="M15.676 34.748C12.6253 34.748 9.94133 34.044 7.624 32.636C5.30667 31.228 3.50267 29.2627 2.212 26.74C0.950667 24.2173 0.32 21.284 0.32 17.94C0.32 14.508 0.950667 11.516 2.212 8.964C3.50267 6.412 5.30667 4.432 7.624 3.024C9.94133 1.58667 12.6253 0.867999 15.676 0.867999C18.756 0.867999 21.44 1.58667 23.728 3.024C26.016 4.432 27.7907 6.412 29.052 8.964C30.3427 11.516 30.988 14.508 30.988 17.94C30.988 21.284 30.3427 24.2173 29.052 26.74C27.7907 29.2627 26.016 31.228 23.728 32.636C21.44 34.044 18.756 34.748 15.676 34.748ZM25.928 28.06C27.072 26.916 27.8347 25.596 28.216 24.1C28.5973 22.5747 28.6413 21.0053 28.348 19.392C28.0547 17.7493 27.4827 16.136 26.632 14.552C25.7813 12.968 24.696 11.516 23.376 10.196C22.056 8.876 20.5893 7.776 18.976 6.896C17.392 6.016 15.764 5.42933 14.092 5.136C12.4493 4.81333 10.8653 4.84266 9.34 5.224C7.844 5.60533 6.524 6.368 5.38 7.512C4.236 8.656 3.47333 9.99067 3.092 11.516C2.71067 13.0413 2.652 14.64 2.916 16.312C3.20933 17.984 3.78133 19.6267 4.632 21.24C5.512 22.824 6.62667 24.276 7.976 25.596C9.296 26.8867 10.748 27.9573 12.332 28.808C13.916 29.6587 15.5293 30.2307 17.172 30.524C18.844 30.8173 20.428 30.7733 21.924 30.392C23.4493 30.0107 24.784 29.2333 25.928 28.06ZM35.3583 2V34H70.7802V2H66.0145V29.8125H55.4833V2H50.702V29.8125H40.1395V2H35.3583ZM75.2333 23.236C75.2333 29.262 77.9933 34.69 84.6633 34.69C92.4373 34.69 95.1513 26.456 96.1173 20.108V34H100.717V1.8H96.1173V11.46C96.1173 17.762 94.0473 30.55 85.5373 30.55C82.1333 30.55 79.8333 28.204 79.8333 24.8C79.8333 17.992 89.0333 13.944 89.0333 6.768C89.0333 4.974 88.4353 3.18 87.3313 1.8H81.0753C75.5093 1.8 75.2333 10.494 75.2333 14.358V23.236ZM76.6133 21.626V14.358C76.6133 11.506 76.6593 3.18 81.0753 3.18C83.0993 3.18 84.4333 4.79 84.4333 6.722C84.4333 11.552 76.6133 15.692 76.6133 21.626ZM105.603 34H117.588C124.697 34 128.775 30.0312 128.775 24.2969C128.775 18.5781 124.697 14.9062 117.588 14.9062H110.431V6.15625H125.556V2H105.603V34ZM110.431 29.9375V18.9687H117.588C121.713 18.9687 123.994 21.3437 123.994 24.2344C123.994 27.2031 121.713 29.9375 117.588 29.9375H110.431ZM152.583 34H158.473L145.192 16.3281L157.989 2H152.098L140.004 15.5156H138.426V2H133.598V34H138.426V19.6562H141.833L152.583 34ZM164.769 34L167.706 25.5312H180.206L183.128 34H188.253L176.738 2H171.16L159.644 34H164.769ZM169.113 21.4687L173.831 7.8125H174.081L178.8 21.4687H169.113ZM212.884 34.4375C219.321 34.4375 223.915 29.8906 223.9 23.6562C223.915 17.4687 219.603 12.9687 213.775 12.9687C211.4 12.9687 209.196 13.875 207.946 15.0938H207.759L208.775 6.14062H222.353V2H204.759L202.962 18.125L207.384 18.7812C208.587 17.7031 210.743 16.9687 212.681 16.9687C216.478 17 219.228 19.8437 219.228 23.75C219.228 27.5937 216.556 30.375 212.884 30.375C209.79 30.375 207.337 28.4062 207.087 25.6562H202.4C202.587 30.75 207.009 34.4375 212.884 34.4375ZM227.349 28.815V7.395H231.641V5.015H234.021V1.955H241.969V5.9925H235.764V10.115H231.641V28.815H227.349ZM247.791 7.82V29.24H243.499V31.62H241.119V34.68H233.171V30.6425H239.376V26.52H243.499V7.82H247.791ZM262.841 34.5313C270.231 34.5313 274.559 28.5 274.559 18.0156C274.559 7.60937 270.169 1.5625 262.841 1.5625C255.497 1.5625 251.122 7.59375 251.106 18.0156C251.106 28.4844 255.434 34.5156 262.841 34.5313ZM262.841 30.3594C258.512 30.3594 255.903 26.0156 255.903 18.0156C255.919 10.0469 258.528 5.65625 262.841 5.65625C267.137 5.65625 269.762 10.0469 269.762 18.0156C269.762 26.0156 267.153 30.3594 262.841 30.3594Z" fill="#272727"/>
</svg>
