<svg width="25" height="25" viewBox="0 0 25 25" fill="none" xmlns="http://www.w3.org/2000/svg">
<path fill-rule="evenodd" clip-rule="evenodd" d="M10.4167 18.7497C5.81433 18.7497 2.08337 15.0187 2.08337 10.4163C2.08337 5.81397 5.81433 2.08301 10.4167 2.08301C15.0191 2.08301 18.75 5.81397 18.75 10.4163C18.75 12.3421 18.0968 14.1153 16.9999 15.5264L22.6116 21.1381L21.1385 22.6113L15.5267 16.9995C14.1156 18.0965 12.3424 18.7497 10.4167 18.7497ZM16.6667 10.4163C16.6667 13.8681 13.8685 16.6663 10.4167 16.6663C6.96493 16.6663 4.16671 13.8681 4.16671 10.4163C4.16671 6.96456 6.96493 4.16634 10.4167 4.16634C13.8685 4.16634 16.6667 6.96456 16.6667 10.4163Z" fill="#272727"/>
<circle cx="10.3671" cy="10.4202" r="6.36553" fill="white"/>
<circle cx="11.3652" cy="9.23323" r="2.46565" fill="#FECE30" fill-opacity="0.68"/>
</svg>
