<svg width="944" height="242" viewBox="0 0 944 242" fill="none" xmlns="http://www.w3.org/2000/svg">
<path d="M147.484 31.1055V4.03711L0 4.03711L0 237.385H147.484V210.006H31.3598L31.3598 127.867H98.7366V141.557H130.717V115.111H106.499V101.421H31.3598L31.3598 31.1055L147.484 31.1055Z" fill="#EFEFEF"/>
<path d="M555.913 201.138C556.124 191.439 557.282 181.846 559.389 172.358C561.496 162.66 563.603 152.962 565.71 143.263C568.027 133.565 569.186 123.866 569.186 114.168C569.397 104.68 568.133 95.2979 565.394 86.0211C562.655 76.7443 559.916 67.573 557.177 58.507C554.438 49.2302 553.069 40.1643 553.069 31.3092C553.069 22.2432 554.859 15.4965 558.441 11.0689C562.233 6.64134 568.975 3.68963 578.667 2.21379C588.358 0.73793 602.158 0 620.067 0C636.711 0 651.88 1.79211 665.575 5.37632C679.27 8.74971 690.12 14.4423 698.126 22.454C706.343 30.255 710.451 40.6914 710.451 53.7632C710.451 60.7208 708.555 66.4134 704.763 70.8409C700.97 75.0576 695.914 77.166 689.593 77.166C684.747 77.166 680.955 75.6901 678.216 72.7384C675.688 69.5759 673.686 65.57 672.212 60.7208C670.737 55.6607 669.051 50.4952 667.155 45.2243C665.47 39.7426 663.047 34.5771 659.886 29.7279C656.726 24.6678 652.196 20.6619 646.297 17.7102C640.609 14.5477 632.919 12.9664 623.227 12.9664C612.693 12.9664 604.265 16.5506 597.945 23.7191C591.624 30.6767 588.464 39.4264 588.464 49.9682C588.464 60.7208 589.939 69.2597 592.888 75.5847C596.049 81.699 600.052 86.3374 604.897 89.4999C609.954 92.4516 615.432 94.56 621.331 95.825C627.441 96.8792 633.445 97.7225 639.345 98.355C645.454 98.7767 650.932 99.62 655.778 100.885C660.835 101.939 664.838 103.942 667.787 106.894C670.947 109.635 672.528 114.062 672.528 120.177C672.528 126.712 670.526 131.667 666.523 135.04C662.731 138.414 658.517 140.101 653.882 140.101C647.983 140.101 641.978 138.414 635.868 135.04C629.969 131.667 624.28 127.45 618.803 122.39C613.535 117.33 608.69 112.165 604.265 106.894C600.052 101.412 596.575 96.5629 593.836 92.3462C591.308 87.9186 589.939 84.9669 589.728 83.4911H588.464V148.007C588.464 159.814 588.675 170.672 589.096 180.581C589.517 190.49 591.097 199.135 593.836 206.514C596.575 213.682 601.21 219.27 607.742 223.275C614.484 227.07 624.07 228.968 636.5 228.968C644.296 228.968 650.3 227.387 654.514 224.224C658.938 220.851 662.415 216.845 664.943 212.207C667.471 207.357 669.894 202.508 672.212 197.659C674.74 192.81 677.795 188.804 681.376 185.641C685.169 182.268 690.541 180.581 697.494 180.581C704.868 180.581 710.872 182.795 715.508 187.222C720.353 191.439 722.776 196.605 722.776 202.719C722.776 211.574 719.195 218.953 712.031 224.857C704.868 230.549 694.966 234.766 682.324 237.507C669.683 240.459 655.146 241.934 638.712 241.934C621.858 241.934 608.058 241.513 597.313 240.669C586.568 239.826 578.14 238.034 572.03 235.293C566.131 232.552 561.917 228.441 559.389 222.959C557.072 217.477 555.913 210.204 555.913 201.138Z" fill="#EFEFEF"/>
<path d="M487.661 67.5803C486.463 57.102 481.557 48.9065 472.943 42.9938C464.329 37.0062 453.356 34.0124 440.024 34.0124C426.093 34.0124 414.895 37.1933 406.431 43.5551C398.042 49.9169 393.848 58.075 393.848 68.0294C393.848 72.2206 394.747 76.1126 396.544 79.7051C398.342 83.2228 400.551 86.1792 403.173 88.5742C405.869 90.8944 409.202 93.0649 413.172 95.0857C417.217 97.1065 420.924 98.6783 424.295 99.8009C427.666 100.924 431.448 102.009 435.642 103.057L458.113 108.895C502.229 119.747 524.287 141.302 524.287 173.56C524.287 193.469 516.685 209.673 501.48 222.172C486.35 234.671 465.565 240.921 439.125 240.921C413.434 240.921 392.949 234.933 377.669 222.958C362.39 210.908 354.188 194.442 353.064 173.56H387.893C388.867 185.536 394.073 194.704 403.51 201.066C413.022 207.353 424.819 210.496 438.901 210.496C453.806 210.496 466.015 207.091 475.527 200.28C485.114 193.394 489.908 184.375 489.908 173.224C489.908 169.257 489.159 165.627 487.661 162.334C486.163 159.041 484.178 156.234 481.706 153.914C479.31 151.593 476.126 149.46 472.156 147.514C468.262 145.494 464.329 143.81 460.36 142.462C456.39 141.04 451.709 139.618 446.316 138.196L419.127 130.787C379.205 120.009 359.244 99.7635 359.244 70.0501C359.244 57.102 362.802 45.5759 369.917 35.4719C377.108 25.3679 386.882 17.6214 399.241 12.2326C411.599 6.76894 425.456 4.03711 440.811 4.03711C464.03 4.03711 483.092 9.98727 497.997 21.8876C512.902 33.7879 520.617 49.0188 521.142 67.5803H487.661Z" fill="#EFEFEF"/>
<path d="M944 7.06836V236.881H912.153L795.417 68.3367H793.286V236.881H758.635V7.06836L790.707 7.06836L907.555 175.837H909.686V7.06836L944 7.06836Z" fill="#EFEFEF"/>
<path d="M193.433 129.852C174.036 117.684 181.81 98.5099 188.122 90.4438C187.385 91.5193 187.97 90.9047 196.204 79.8427C204.438 68.7806 197.787 52.8022 193.433 46.1957C190.2 37.8992 186.828 19.2321 199.206 10.9356C214.677 0.565089 229.687 1.7173 243.08 15.5448C253.795 26.6068 267.865 23.9949 273.561 21.3062C282.182 14.0083 301.779 3.79135 311.201 21.3062C322.978 43.1998 314.665 65.5542 311.201 73.6203C307.737 81.6863 297.808 83.2995 281.182 82.3777C267.881 81.6402 264.151 62.7445 262.015 53.34C258.461 45.2247 246.498 32.1378 229.687 41.3562C208.673 52.8791 213.984 81.6864 216.755 90.4438C219.526 99.2013 242.156 120.123 262.015 101.736C277.903 87.0272 289.264 89.9827 295.729 92.7483C302.426 94.5919 315.727 98.6021 319.976 116.486C325.287 138.84 317.037 135.603 314.665 151.285C312.817 163.499 324.594 174.331 325.98 185.623C327.365 196.916 324.438 210.394 307.968 226.184C287.713 245.603 250.008 240.933 238.693 240.933C227.522 240.933 206.364 234.25 196.204 226.184C188.122 219.768 181.656 208.669 176.114 188.619C169.025 162.974 184.196 154.281 188.122 151.285C192.115 148.237 213.061 143.68 222.528 151.285C231.996 158.89 231.996 170.874 229.687 188.619C227.378 206.364 231.947 212.597 238.693 220.883C244.696 228.258 280.258 231.484 287.878 216.966C295.472 202.496 285.637 196.267 273.684 188.697L273.561 188.619C261.554 181.014 263.632 166.956 267.326 157.507C271.021 148.058 275.87 143.68 269.636 127.548C264.648 114.642 248.16 114.642 238.693 121.325C227.608 129.852 212.83 142.02 193.433 129.852Z" fill="#EFEFEF"/>
</svg>
