<svg width="24" height="25" viewBox="0 0 24 25" fill="none" xmlns="http://www.w3.org/2000/svg">
<path fill-rule="evenodd" clip-rule="evenodd" d="M18.3539 20.9933L20.4703 18.8768L19.7249 16.1688L20.0496 15.3932L22.5002 14.0103V11.0173L20.0566 9.62864L19.7373 8.85441L20.492 6.14498L18.3741 4.03007L15.666 4.77526L14.8921 4.4508L13.5092 1.99982H10.5163L9.12775 4.44361L8.35373 4.76284L5.64486 4.00714L3.53028 6.12182L4.27556 8.83055L3.95111 9.6044L1.50024 10.9874V13.9796L3.94172 15.3713L4.26129 16.1462L3.50667 18.8552L5.62206 20.9707L8.33066 20.2253L9.10457 20.5498L10.4875 22.9998H13.4796L14.8703 20.5582L15.645 20.2386L18.3539 20.9933ZM18.8527 14.1257L17.9809 16.2078L18.6362 18.5886L18.0678 19.157L15.692 18.4952L13.609 19.3543L12.3873 21.4991H11.5829L10.3714 19.3529L8.29155 18.4809L5.90947 19.1363L5.34203 18.5689L6.00385 16.1931L5.14482 14.1102L3 12.8876V12.0831L5.1471 10.8716L6.0192 8.79161L5.36375 6.40953L5.93001 5.84327L8.30576 6.50601L10.3895 5.64661L11.6093 3.50006H12.4129L13.6245 5.64716L15.7044 6.51926L18.087 5.86368L18.6558 6.43172L17.9941 8.80702L18.8534 10.8906L21 12.1104V12.914L18.8527 14.1257ZM12.0001 16.4999C9.79092 16.4999 8.00006 14.7091 8.00006 12.4999C8.00006 10.2908 9.79092 8.49994 12.0001 8.49994C14.2092 8.49994 16.0001 10.2908 16.0001 12.4999C16.0001 14.7091 14.2092 16.4999 12.0001 16.4999ZM14 12.5C14 13.6046 13.1046 14.5 12 14.5C10.8955 14.5 10 13.6046 10 12.5C10 11.3954 10.8955 10.5 12 10.5C13.1046 10.5 14 11.3954 14 12.5Z" fill="#272727"/>
</svg>
