<svg width="116" height="29" viewBox="0 0 116 29" fill="none" xmlns="http://www.w3.org/2000/svg">
<path d="M18.0866 3.73839V0.495117L0 0.495117L0 28.4544H18.0866V25.1738H3.84578L3.84578 15.3322H12.1085V16.9724H16.0304V13.8037H13.0604V12.1635H3.84578L3.84578 3.73839L18.0866 3.73839Z" fill="#F0C00E"/>
<path d="M68.1463 24.1098C68.1721 22.9473 68.3142 21.7974 68.5725 20.6601C68.8308 19.4976 69.0891 18.3351 69.3474 17.1726C69.6315 16.01 69.7736 14.8475 69.7736 13.685C69.7994 12.5477 69.6445 11.4231 69.3087 10.3111C68.9729 9.19913 68.6371 8.09978 68.3013 7.01307C67.9655 5.90109 67.7976 4.81438 67.7976 3.75294C67.7976 2.66623 68.0172 1.85752 68.4563 1.3268C68.9212 0.796079 69.7478 0.442266 70.936 0.265361C72.1241 0.0884536 73.816 0 76.0116 0C78.0521 0 79.9119 0.214815 81.5908 0.644445C83.2698 1.0488 84.6 1.73116 85.5816 2.6915C86.589 3.62658 87.0927 4.87756 87.0927 6.44444C87.0927 7.27843 86.8602 7.96078 86.3952 8.4915C85.9303 8.99695 85.3104 9.24967 84.5355 9.24967C83.9414 9.24967 83.4764 9.07277 83.1407 8.71895C82.8307 8.33987 82.5853 7.8597 82.4045 7.27843C82.2237 6.6719 82.017 6.05272 81.7846 5.42091C81.5779 4.76383 81.2809 4.14466 80.8934 3.5634C80.506 2.95686 79.9506 2.47669 79.2274 2.12288C78.53 1.74379 77.5872 1.55425 76.399 1.55425C75.1075 1.55425 74.0743 1.98388 73.2994 2.84314C72.5245 3.67713 72.1371 4.72593 72.1371 5.98954C72.1371 7.27843 72.3179 8.30196 72.6795 9.06013C73.0669 9.79303 73.5577 10.349 74.1518 10.7281C74.7717 11.0819 75.4433 11.3346 76.1665 11.4863C76.9156 11.6126 77.6518 11.7137 78.375 11.7895C79.1241 11.8401 79.7957 11.9412 80.3898 12.0928C81.0097 12.2192 81.5004 12.4593 81.8621 12.8131C82.2495 13.1416 82.4432 13.6723 82.4432 14.4052C82.4432 15.1887 82.1979 15.7826 81.7071 16.1869C81.2421 16.5913 80.7255 16.7935 80.1573 16.7935C79.434 16.7935 78.6979 16.5913 77.9488 16.1869C77.2256 15.7826 76.5282 15.2771 75.8566 14.6706C75.2108 14.0641 74.6167 13.4449 74.0743 12.8131C73.5577 12.156 73.1315 11.5747 72.7957 11.0693C72.4858 10.5386 72.3179 10.1847 72.292 10.0078H72.1371V17.7412C72.1371 19.1564 72.1629 20.458 72.2145 21.6458C72.2662 22.8335 72.4599 23.8697 72.7957 24.7542C73.1315 25.6135 73.6998 26.2832 74.5005 26.7634C75.3271 27.2183 76.5023 27.4457 78.0263 27.4457C78.982 27.4457 79.7182 27.2562 80.2348 26.8771C80.7772 26.4728 81.2034 25.9926 81.5134 25.4366C81.8233 24.8553 82.1204 24.2741 82.4045 23.6928C82.7145 23.1115 83.089 22.6314 83.5281 22.2523C83.993 21.8479 84.6517 21.6458 85.5041 21.6458C86.4082 21.6458 87.1443 21.9111 87.7126 22.4418C88.3067 22.9473 88.6037 23.5664 88.6037 24.2993C88.6037 25.3608 88.1646 26.2453 87.2864 26.9529C86.4082 27.6353 85.1941 28.1407 83.6443 28.4693C82.0945 28.8231 80.3123 29 78.2975 29C76.2311 29 74.5393 28.9495 73.2219 28.8484C71.9046 28.7473 70.8714 28.5325 70.1223 28.2039C69.3991 27.8754 68.8825 27.3826 68.5725 26.7255C68.2884 26.0684 68.1463 25.1965 68.1463 24.1098Z" fill="#4AB15E"/>
<path d="M59.7775 8.10377C59.6307 6.84733 59.0299 5.86462 57.9751 5.15563C56.9202 4.43767 55.5764 4.07868 53.9437 4.07868C52.2376 4.07868 50.8663 4.4601 49.8298 5.22294C48.8025 5.98577 48.2888 6.964 48.2888 8.15762C48.2888 8.66019 48.3989 9.12686 48.619 9.55764C48.8391 9.97945 49.1097 10.3339 49.4308 10.6211C49.761 10.8993 50.1692 11.1596 50.6553 11.4019C51.1506 11.6442 51.6047 11.8327 52.0175 11.9673C52.4302 12.1019 52.8934 12.2321 53.4071 12.3577L56.1589 13.0577C61.5616 14.359 64.2629 16.9437 64.2629 20.8117C64.2629 23.199 63.3319 25.1419 61.4698 26.6407C59.617 28.1394 57.0716 28.8888 53.8336 28.8888C50.6874 28.8888 48.1787 28.1709 46.3075 26.7349C44.4363 25.29 43.4319 23.3156 43.2943 20.8117H47.5596C47.6788 22.2477 48.3163 23.347 49.4721 24.1099C50.637 24.8637 52.0817 25.2407 53.8061 25.2407C55.6315 25.2407 57.1266 24.8323 58.2915 24.0156C59.4656 23.19 60.0527 22.1086 60.0527 20.7713C60.0527 20.2957 59.9609 19.8604 59.7775 19.4655C59.594 19.0707 59.351 18.7341 59.0483 18.4559C58.7547 18.1777 58.3649 17.9219 57.8787 17.6886C57.4018 17.4463 56.9202 17.2443 56.4341 17.0828C55.9479 16.9123 55.3746 16.7418 54.7142 16.5713L51.3846 15.6828C46.4956 14.3904 44.0511 11.9628 44.0511 8.39993C44.0511 6.84733 44.4867 5.46525 45.3581 4.25369C46.2387 3.04212 47.4357 2.11326 48.9492 1.46709C50.4627 0.811946 52.1596 0.484375 54.04 0.484375C56.8835 0.484375 59.218 1.19785 61.0433 2.6248C62.8686 4.05176 63.8134 5.87808 63.8776 8.10377H59.7775Z" fill="#FF6242"/>
<path d="M116 0.861328V28.4311H112.093L97.7696 8.21148H97.5082V28.4311H93.2567V0.861328L97.1918 0.861328L111.529 21.1079H111.79V0.861328L116 0.861328Z" fill="#272727"/>
<path d="M23.7287 15.5939C21.3536 14.1336 23.0784 10.8646 23.0784 10.8646C23.0784 10.8646 23.3038 10.4699 24.0679 9.59234C25.1642 8.33341 24.2618 6.34728 23.7287 5.55446C23.3328 4.55882 22.92 2.31863 24.4355 1.32299C26.3299 0.0784492 28.1677 0.216723 29.8076 1.87613C31.1195 3.20365 32.8424 2.8902 33.5398 2.56753C34.5954 1.69174 36.9949 0.465625 38.1485 2.56753C39.5905 5.19492 38.5726 7.87762 38.1485 8.84561C37.7244 9.81359 36.5086 10.0072 34.4728 9.89656C32.8442 9.80806 32.3875 7.54044 32.1261 6.41183C31.6909 5.43793 30.2261 3.86741 28.1677 4.97368C25.5947 6.35651 26.245 9.8136 26.5843 10.8646C26.9236 11.9155 29.6945 14.4262 32.1261 12.2197C34.0713 10.4545 35.4624 10.8092 36.2541 11.1411C37.0741 11.3624 38.7026 11.8436 39.2229 13.9898C39.8732 16.6725 38.863 16.284 38.5726 18.1659C38.3464 19.6317 39.7884 20.9316 39.958 22.2868C40.1277 23.642 39.7692 25.2595 37.7526 27.1544C35.2726 29.4848 30.6558 28.9244 29.2704 28.9244C27.9027 28.9244 25.312 28.1223 24.0679 27.1544C23.0784 26.3844 22.2867 25.0524 21.6081 22.6463C20.7402 19.5687 22.5976 18.5255 23.0784 18.1659C23.5674 17.8002 26.132 17.2533 27.2912 18.1659C28.4504 19.0786 28.4504 20.5168 28.1677 22.6463C27.885 24.7759 28.4445 25.5239 29.2704 26.5183C30.0055 27.4033 34.3597 27.7905 35.2928 26.0481C36.2226 24.3117 35.0183 23.5641 33.5548 22.6557L33.5398 22.6463C32.0695 21.7336 32.324 20.0466 32.7764 18.9127C33.2288 17.7787 33.8225 17.2533 33.0591 15.3173C32.4484 13.7685 30.4296 13.7685 29.2704 14.5706C27.9132 15.5939 26.1037 17.0541 23.7287 15.5939Z" fill="#AD99E5"/>
</svg>
