<svg width="20" height="20" viewBox="0 0 21 21" fill="none" xmlns="http://www.w3.org/2000/svg">
<path fill-rule="evenodd" clip-rule="evenodd" d="M10.9302 20.8605C16.4146 20.8605 20.8605 16.4146 20.8605 10.9302C20.8605 5.44592 16.4146 1 10.9302 1C5.44592 1 1 5.44592 1 10.9302C1 16.4146 5.44592 20.8605 10.9302 20.8605ZM12.0331 7.80215C11.6791 6.8419 10.3209 6.8419 9.96691 7.80215C9.78327 8.30026 9.27033 8.59641 8.74712 8.50639C7.73851 8.33286 7.05944 9.50904 7.71403 10.2958C8.05359 10.7039 8.05359 11.2961 7.71403 11.7042C7.05944 12.491 7.73851 13.6671 8.74712 13.4936C9.27033 13.4036 9.78327 13.6997 9.96691 14.1979C10.3209 15.1581 11.6791 15.1581 12.0331 14.1979C12.2167 13.6997 12.7297 13.4036 13.2529 13.4936C14.2615 13.6671 14.9406 12.491 14.286 11.7042C13.9464 11.2961 13.9464 10.7039 14.286 10.2958C14.9406 9.50904 14.2615 8.33286 13.2529 8.50639C12.7297 8.59641 12.2167 8.30027 12.0331 7.80215Z" fill="#AD99E5"/>
<path fill-rule="evenodd" clip-rule="evenodd" d="M10.9302 20.8605C16.4146 20.8605 20.8605 16.4146 20.8605 10.9302C20.8605 5.44592 16.4146 1 10.9302 1C5.44592 1 1 5.44592 1 10.9302C1 16.4146 5.44592 20.8605 10.9302 20.8605ZM12.0331 7.80215C11.6791 6.8419 10.3209 6.8419 9.96691 7.80215C9.78327 8.30026 9.27033 8.59641 8.74712 8.50639C7.73851 8.33286 7.05944 9.50904 7.71403 10.2958C8.05359 10.7039 8.05359 11.2961 7.71403 11.7042C7.05944 12.491 7.73851 13.6671 8.74712 13.4936C9.27033 13.4036 9.78327 13.6997 9.96691 14.1979C10.3209 15.1581 11.6791 15.1581 12.0331 14.1979C12.2167 13.6997 12.7297 13.4036 13.2529 13.4936C14.2615 13.6671 14.9406 12.491 14.286 11.7042C13.9464 11.2961 13.9464 10.7039 14.286 10.2958C14.9406 9.50904 14.2615 8.33286 13.2529 8.50639C12.7297 8.59641 12.2167 8.30027 12.0331 7.80215Z" fill="url(#paint0_linear)"/>
<g filter="url(#filter0_f)">
<path d="M2.96158 8.70547C2.94163 8.5982 2.96465 8.4874 3.02567 8.39695L5.91029 4.12133C5.99312 3.99855 6.12104 3.9134 6.26627 3.88435L10.9231 2.95297C10.9999 2.93762 11.079 2.93846 11.1554 2.95544L15.3095 3.87856C15.4567 3.91127 15.5846 4.00169 15.6645 4.12954L17.9724 7.82214C18.0163 7.89242 18.0396 7.97363 18.0396 8.05651C18.0396 8.52313 17.4105 8.67162 17.2019 8.25427L15.6593 5.16916C15.5836 5.01765 15.4436 4.90835 15.2782 4.87161L11.1616 3.9568C11.0812 3.93894 10.9979 3.93894 10.9175 3.9568L6.74917 4.88311C6.61419 4.91311 6.49499 4.99176 6.41433 5.10406L3.70793 8.87197C3.49436 9.16931 3.02852 9.06539 2.96158 8.70547Z" fill="url(#paint1_linear)" fill-opacity="0.6"/>
</g>
<defs>
<filter id="filter0_f" x="0.470185" y="0.458008" width="20.0538" height="11.0722" filterUnits="userSpaceOnUse" color-interpolation-filters="sRGB">
<feFlood flood-opacity="0" result="BackgroundImageFix"/>
<feBlend mode="normal" in="SourceGraphic" in2="BackgroundImageFix" result="shape"/>
<feGaussianBlur stdDeviation="1.24219" result="effect1_foregroundBlur"/>
</filter>
<linearGradient id="paint0_linear" x1="10.9302" y1="1" x2="10.9302" y2="20.8605" gradientUnits="userSpaceOnUse">
<stop stop-color="#AD99E5"/>
<stop offset="1" stop-color="#A391D6"/>
</linearGradient>
<linearGradient id="paint1_linear" x1="10.485" y1="2.92969" x2="10.0396" y2="13.4297" gradientUnits="userSpaceOnUse">
<stop stop-color="white"/>
<stop offset="1" stop-color="white" stop-opacity="0"/>
</linearGradient>
</defs>
</svg>
