<svg width="19" height="20" viewBox="0 0 19 20" fill="none" xmlns="http://www.w3.org/2000/svg">
<mask id="mask0" mask-type="alpha" maskUnits="userSpaceOnUse" x="0" y="0" width="19" height="20">
<path fill-rule="evenodd" clip-rule="evenodd" d="M0 3.66667C0 1.91777 1.41777 0.5 3.16667 0.5H15.8333C17.5822 0.5 19 1.91777 19 3.66667C19 5.41558 17.5822 6.83334 15.8333 6.83334H3.16667C1.41777 6.83334 0 5.41558 0 3.66667ZM0 10.0002C0 8.25126 1.41777 6.8335 3.16667 6.8335H15.8333C17.5822 6.8335 19 8.25126 19 10.0002C19 11.7435 17.5912 13.1578 15.85 13.1668C17.5912 13.1758 19 14.5901 19 16.3334C19 18.0823 17.5822 19.5001 15.8333 19.5001H3.16667C1.41777 19.5001 0 18.0823 0 16.3334C0 14.5901 1.40877 13.1758 3.15001 13.1668C1.40877 13.1578 0 11.7435 0 10.0002Z" fill="#C4C4C4"/>
</mask>
<g mask="url(#mask0)">
<path fill-rule="evenodd" clip-rule="evenodd" d="M9.53946 -2.19421L-0.844466 -13.0645L-3.6001 -10.1798L9.548 3.5841L10.3661 2.72764L10.3665 2.72797L21.7475 -9.18612L18.983 -12.0801L9.53946 -2.19421ZM9.53946 4.80579L-0.844466 -6.06445L-3.6001 -3.17977L9.548 10.5841L10.3661 9.72764L10.3665 9.72797L21.7475 -2.18612L18.983 -5.08008L9.53946 4.80579ZM9.53946 11.8058L-0.844466 0.935547L-3.6001 3.82023L9.548 17.5841L10.3661 16.7276L10.3665 16.728L21.7475 4.81388L18.983 1.91992L9.53946 11.8058ZM9.53946 18.8058L-0.844466 7.93555L-3.6001 10.8202L9.548 24.5841L10.3661 23.7276L10.3665 23.728L21.7475 11.8139L18.983 8.91992L9.53946 18.8058ZM9.53946 25.8058L-0.844466 14.9355L-3.6001 17.8202L9.548 31.5841L10.3661 30.7276L10.3665 30.728L21.7475 18.8139L18.983 15.9199L9.53946 25.8058Z" fill="#FF6242"/>
<path fill-rule="evenodd" clip-rule="evenodd" d="M9.53946 -2.19421L-0.844466 -13.0645L-3.6001 -10.1798L9.548 3.5841L10.3661 2.72764L10.3665 2.72797L21.7475 -9.18612L18.983 -12.0801L9.53946 -2.19421ZM9.53946 4.80579L-0.844466 -6.06445L-3.6001 -3.17977L9.548 10.5841L10.3661 9.72764L10.3665 9.72797L21.7475 -2.18612L18.983 -5.08008L9.53946 4.80579ZM9.53946 11.8058L-0.844466 0.935547L-3.6001 3.82023L9.548 17.5841L10.3661 16.7276L10.3665 16.728L21.7475 4.81388L18.983 1.91992L9.53946 11.8058ZM9.53946 18.8058L-0.844466 7.93555L-3.6001 10.8202L9.548 24.5841L10.3661 23.7276L10.3665 23.728L21.7475 11.8139L18.983 8.91992L9.53946 18.8058ZM9.53946 25.8058L-0.844466 14.9355L-3.6001 17.8202L9.548 31.5841L10.3661 30.7276L10.3665 30.728L21.7475 18.8139L18.983 15.9199L9.53946 25.8058Z" fill="url(#paint0_linear)"/>
</g>
<defs>
<linearGradient id="paint0_linear" x1="9.07371" y1="-3.49951" x2="9.07371" y2="22.5005" gradientUnits="userSpaceOnUse">
<stop stop-color="#FF6242"/>
<stop offset="1" stop-color="#EF674B"/>
</linearGradient>
</defs>
</svg>
