<svg width="25" height="26" viewBox="0 0 25 26" fill="none" xmlns="http://www.w3.org/2000/svg">
<path fill-rule="evenodd" clip-rule="evenodd" d="M13 8.01265C13 8.00844 13 8.00422 13 8C13 5.23858 10.7614 3 8 3C5.23858 3 3 5.23858 3 8C3 10.7614 5.23858 13 8 13C8.00422 13 8.00844 13 8.01265 13C8.01265 13 8.01265 13 8.01265 13.0001C8.00844 13.0001 8.00422 13.0001 8 13.0001C5.23858 13.0001 3 15.2386 3 18.0001C3 20.7615 5.23858 23.0001 8 23.0001C10.7572 23.0001 12.9932 20.7683 13 18.0126C13 18.0126 13 18.0126 13.0001 18.0126C13.0068 20.7683 15.2428 23.0001 18.0001 23.0001C20.7615 23.0001 23.0001 20.7615 23.0001 18.0001C23.0001 15.2428 20.7683 13.0068 18.0126 13.0001C18.0126 13 18.0126 13 18.0126 13C20.7683 12.9932 23.0001 10.7572 23.0001 8C23.0001 5.23858 20.7615 3 18.0001 3C15.2386 3 13.0001 5.23858 13.0001 8C13.0001 8.00422 13.0001 8.00844 13.0001 8.01265C13 8.01265 13 8.01265 13 8.01265Z" fill="#4AB15E"/>
<path fill-rule="evenodd" clip-rule="evenodd" d="M13 8.01265C13 8.00844 13 8.00422 13 8C13 5.23858 10.7614 3 8 3C5.23858 3 3 5.23858 3 8C3 10.7614 5.23858 13 8 13C8.00422 13 8.00844 13 8.01265 13C8.01265 13 8.01265 13 8.01265 13.0001C8.00844 13.0001 8.00422 13.0001 8 13.0001C5.23858 13.0001 3 15.2386 3 18.0001C3 20.7615 5.23858 23.0001 8 23.0001C10.7572 23.0001 12.9932 20.7683 13 18.0126C13 18.0126 13 18.0126 13.0001 18.0126C13.0068 20.7683 15.2428 23.0001 18.0001 23.0001C20.7615 23.0001 23.0001 20.7615 23.0001 18.0001C23.0001 15.2428 20.7683 13.0068 18.0126 13.0001C18.0126 13 18.0126 13 18.0126 13C20.7683 12.9932 23.0001 10.7572 23.0001 8C23.0001 5.23858 20.7615 3 18.0001 3C15.2386 3 13.0001 5.23858 13.0001 8C13.0001 8.00422 13.0001 8.00844 13.0001 8.01265C13 8.01265 13 8.01265 13 8.01265Z" fill="url(#paint0_linear)"/>
<g filter="url(#filter0_f)">
<path d="M3.78803 3.49651C3.82148 3.21335 4.06151 3 4.34664 3H7.67438C7.75788 3 7.84034 3.01859 7.91576 3.05442L8.94003 3.54104C9.02781 3.58274 9.10329 3.64648 9.15911 3.72604L10.0664 5.01917C10.2272 5.24838 10.195 5.56096 9.99074 5.75251L6.82775 8.7193C6.64944 8.88655 6.38351 8.91948 6.16979 8.80076L3.67641 7.4158C3.47694 7.30501 3.36416 7.08468 3.39093 6.85808L3.78803 3.49651Z" fill="url(#paint1_radial)" fill-opacity="0.3"/>
</g>
<g filter="url(#filter1_f)">
<path d="M5.7644 19.478C5.812 19.2094 6.04547 19.0137 6.31827 19.0137H9.71426C9.77188 19.0137 9.82916 19.0225 9.8841 19.0399L10.9503 19.3776C11.0317 19.4034 11.1061 19.4473 11.168 19.5061L11.8206 20.1262C12.087 20.3794 12.043 20.816 11.7313 21.0109L8.76284 22.8671C8.61504 22.9595 8.43274 22.9782 8.26928 22.9177L5.78717 21.9986C5.53213 21.9041 5.38118 21.6407 5.42864 21.3729L5.7644 19.478Z" fill="url(#paint2_radial)" fill-opacity="0.7"/>
</g>
<g filter="url(#filter2_f)">
<path d="M12.7879 3.49651C12.8214 3.21335 13.0614 3 13.3465 3H16.6743C16.7578 3 16.8402 3.01859 16.9156 3.05442L17.9399 3.54104C18.0277 3.58274 18.1032 3.64648 18.159 3.72604L19.0663 5.01917C19.2271 5.24838 19.1948 5.56096 18.9906 5.75251L15.8276 8.7193C15.6493 8.88655 15.3834 8.91948 15.1697 8.80076L12.6763 7.4158C12.4768 7.30501 12.364 7.08468 12.3908 6.85808L12.7879 3.49651Z" fill="url(#paint3_radial)" fill-opacity="0.3"/>
</g>
<g filter="url(#filter3_f)">
<path d="M15.7643 19.478C15.8119 19.2094 16.0453 19.0137 16.3181 19.0137H19.7141C19.7718 19.0137 19.829 19.0225 19.884 19.0399L20.9502 19.3776C21.0316 19.4034 21.106 19.4473 21.1678 19.5061L21.8204 20.1262C22.0869 20.3794 22.0429 20.816 21.7312 21.0109L18.7627 22.8671C18.6149 22.9595 18.4326 22.9782 18.2692 22.9177L15.7871 21.9986C15.532 21.9041 15.3811 21.6407 15.4285 21.3729L15.7643 19.478Z" fill="url(#paint4_radial)" fill-opacity="0.7"/>
</g>
<defs>
<filter id="filter0_f" x="0.902649" y="0.515625" width="11.7502" height="10.8403" filterUnits="userSpaceOnUse" color-interpolation-filters="sRGB">
<feFlood flood-opacity="0" result="BackgroundImageFix"/>
<feBlend mode="normal" in="SourceGraphic" in2="BackgroundImageFix" result="shape"/>
<feGaussianBlur stdDeviation="1.24219" result="effect1_foregroundBlur"/>
</filter>
<filter id="filter1_f" x="2.93558" y="16.5293" width="11.5444" height="8.90777" filterUnits="userSpaceOnUse" color-interpolation-filters="sRGB">
<feFlood flood-opacity="0" result="BackgroundImageFix"/>
<feBlend mode="normal" in="SourceGraphic" in2="BackgroundImageFix" result="shape"/>
<feGaussianBlur stdDeviation="1.24219" result="effect1_foregroundBlur"/>
</filter>
<filter id="filter2_f" x="9.90253" y="0.515625" width="11.7502" height="10.8403" filterUnits="userSpaceOnUse" color-interpolation-filters="sRGB">
<feFlood flood-opacity="0" result="BackgroundImageFix"/>
<feBlend mode="normal" in="SourceGraphic" in2="BackgroundImageFix" result="shape"/>
<feGaussianBlur stdDeviation="1.24219" result="effect1_foregroundBlur"/>
</filter>
<filter id="filter3_f" x="12.9355" y="16.5293" width="11.5444" height="8.90777" filterUnits="userSpaceOnUse" color-interpolation-filters="sRGB">
<feFlood flood-opacity="0" result="BackgroundImageFix"/>
<feBlend mode="normal" in="SourceGraphic" in2="BackgroundImageFix" result="shape"/>
<feGaussianBlur stdDeviation="1.24219" result="effect1_foregroundBlur"/>
</filter>
<linearGradient id="paint0_linear" x1="13" y1="3" x2="13" y2="23.0001" gradientUnits="userSpaceOnUse">
<stop stop-color="#4AB15E"/>
<stop offset="1" stop-color="#45A357"/>
</linearGradient>
<radialGradient id="paint1_radial" cx="0" cy="0" r="1" gradientUnits="userSpaceOnUse" gradientTransform="translate(6.84668 6) rotate(-147.265) scale(4.16083 5.36251)">
<stop stop-color="#D5FFCA"/>
<stop offset="1" stop-color="white" stop-opacity="0"/>
</radialGradient>
<radialGradient id="paint2_radial" cx="0" cy="0" r="1" gradientUnits="userSpaceOnUse" gradientTransform="translate(8.84668 21.0137) rotate(-156.801) scale(3.80789 3.90637)">
<stop stop-color="#839A7D"/>
<stop offset="1" stop-color="#AAAFA8" stop-opacity="0"/>
</radialGradient>
<radialGradient id="paint3_radial" cx="0" cy="0" r="1" gradientUnits="userSpaceOnUse" gradientTransform="translate(15.8466 6) rotate(-147.265) scale(4.16083 5.36251)">
<stop stop-color="#D5FFCA"/>
<stop offset="1" stop-color="white" stop-opacity="0"/>
</radialGradient>
<radialGradient id="paint4_radial" cx="0" cy="0" r="1" gradientUnits="userSpaceOnUse" gradientTransform="translate(18.8466 21.0137) rotate(-156.801) scale(3.80789 3.90637)">
<stop stop-color="#327B20"/>
<stop offset="1" stop-color="#B0C1AB" stop-opacity="0"/>
</radialGradient>
</defs>
</svg>
