<svg width="16" height="16" viewBox="0 0 16 16" fill="none" xmlns="http://www.w3.org/2000/svg">
<path fill-rule="evenodd" clip-rule="evenodd" d="M11.0356 1.33338C10.0705 1.33337 9.44834 1.44835 8.73518 1.79742C8.47115 1.92666 8.22344 2.0823 7.9934 2.26388C7.77221 2.09248 7.5344 1.94399 7.28129 1.8188C6.55429 1.45922 5.90027 1.33337 4.96978 1.33337C2.47771 1.33337 0.666748 3.39822 0.666748 6.07996C0.666748 8.10521 1.79597 10.0616 3.89931 11.9533C5.00334 12.9463 6.41296 13.9289 7.42248 14.4517L8.00008 14.7508L8.57768 14.4517C9.5872 13.9289 10.9968 12.9463 12.1009 11.9533C14.2042 10.0616 15.3334 8.10521 15.3334 6.07996C15.3334 3.4266 13.5054 1.34361 11.0356 1.33338ZM14.0002 6.10711C14.0002 7.70641 13.0577 9.35235 11.2094 11.0279C10.2017 11.9415 8.90622 12.8544 8.00024 13.3334C7.09427 12.8544 5.79879 11.9415 4.79109 11.0279C2.94279 9.35235 2.00024 7.70641 2.00024 6.10711C2.00024 4.1099 3.25601 2.6667 4.96994 2.6667C5.70977 2.6667 6.16566 2.75512 6.69033 3.01669C7.00025 3.17119 7.27416 3.3752 7.51126 3.63015L8.0018 4.1576L8.48788 3.62597C8.73031 3.36081 9.00825 3.15215 9.32153 2.99759C9.83083 2.74632 10.2582 2.6667 11.033 2.6667C12.7257 2.67377 14.0002 4.13762 14.0002 6.10711Z" fill="#272727"/>
</svg>
