<svg width="24" height="24" viewBox="0 0 24 24" fill="none" xmlns="http://www.w3.org/2000/svg">
<rect width="24" height="24" rx="12" fill="#EFEFEF"/>
<path d="M10.75 13.4901H11.9688V13.4091C11.9858 12.429 12.267 11.9901 12.9915 11.5426C13.7543 11.0824 14.223 10.4347 14.223 9.47585C14.223 8.09091 13.1747 7.15341 11.6108 7.15341C10.1747 7.15341 9.02415 7.9929 8.96875 9.52699H10.2642C10.3153 8.62358 10.9588 8.22727 11.6108 8.22727C12.3352 8.22727 12.9233 8.70881 12.9233 9.46307C12.9233 10.098 12.527 10.5455 12.0199 10.8608C11.2273 11.3466 10.7585 11.8281 10.75 13.4091V13.4901ZM11.3935 16.081C11.858 16.081 12.2457 15.7017 12.2457 15.2287C12.2457 14.7642 11.858 14.3807 11.3935 14.3807C10.9247 14.3807 10.5412 14.7642 10.5412 15.2287C10.5412 15.7017 10.9247 16.081 11.3935 16.081Z" fill="black"/>
</svg>
