<svg width="13" height="13" viewBox="0 0 13 13" fill="none" xmlns="http://www.w3.org/2000/svg">
<circle cx="6.5" cy="6" r="6" fill="#BDBCE9"/>
<path d="M5.89844 7.3267H6.71094V7.27273C6.7223 6.61932 6.9098 6.3267 7.39276 6.02841C7.90128 5.72159 8.21378 5.28977 8.21378 4.65057C8.21378 3.72727 7.51491 3.10227 6.4723 3.10227C5.51491 3.10227 4.74787 3.66193 4.71094 4.68466H5.57457C5.60866 4.08239 6.03764 3.81818 6.4723 3.81818C6.95526 3.81818 7.3473 4.1392 7.3473 4.64205C7.3473 5.06534 7.0831 5.36364 6.74503 5.57386C6.21662 5.89773 5.90412 6.21875 5.89844 7.27273V7.3267ZM6.32741 9.05398C6.63707 9.05398 6.8956 8.80114 6.8956 8.4858C6.8956 8.17614 6.63707 7.92045 6.32741 7.92045C6.01491 7.92045 5.75923 8.17614 5.75923 8.4858C5.75923 8.80114 6.01491 9.05398 6.32741 9.05398Z" fill="white"/>
</svg>
