<svg width="17" height="14" viewBox="0 0 17 14" fill="none" xmlns="http://www.w3.org/2000/svg">
<path d="M7.01173 9.69585L7.85516 8.8339M7.85516 8.8339C7.66773 8.57053 7.40533 7.92885 7.85516 7.46914C8.30499 7.00944 9.01199 7.21658 9.26088 7.46914M7.85516 8.8339C8.11287 9.04939 8.75482 9.35107 9.26088 8.8339C9.76693 8.31673 9.47173 7.70857 9.26088 7.46914M9.26088 7.46914L12.5405 4.14106M3.35689 8.04378H4.70462M12.5405 8.04378H13.8997M8.62522 4.04836L8.6283 2.65658M5.86491 5.35644L4.87789 4.35485M3.91917 13H13.2672C17.2453 9.69585 16.032 1 8.6252 1C1.44103 1 -0.651754 9.69585 3.91917 13Z" stroke="#9AA1A5" stroke-width="1.36761"/>
</svg>
